# xmcd CD database file
#
# Track frame offsets:
#	150
#	11950
#	26125
#	38675
#	51525
#	66387
#	76625
#	87122
#	98450
#	109975
#	121475
#	134750
#	144575
#	164225
#	177872
#	192275
#
# Disc length: 2702 seconds
#
# Revision: 2
# Processed by: cddbd v1.4b41PL1 Copyright (c) Steve Scherf et al.
# Submitted via: Feurio! 1.50.2ß - http://www.feurio.com
#
DISCID=e60a8c10
DTITLE=Various Artist - Könige der Landstraße
DYEAR=1900
DGENRE=
TTITLE0=Bruce Low - Begrabt mein Herz in der Prärie
TTITLE1=Country Green - Benzin im Blut
TTITLE2=Jonny Hill - 500 Meilen von zuhaus
TTITLE3=Tom Astor - Buchstabiere LKW
TTITLE4=Western Union - Ich möcht' so gerne mal nach Nashville
TTITLE5=Peter Held - Ein Liebeszug verliebt sich in sein Gleis
TTITLE6=Tom Astor - Highway Helden
TTITLE7=Jonny Hill - Ich fahr' meine Tour
TTITLE8=Country Green - Ein Versager im Vergaser
TTITLE9=Peter Held - Wenn ein Wunsch mir bliebe
TTITLE10=Country Green - Country Morgen
TTITLE11=Tom Astor  - Danke Brummi
TTITLE12=Gunter Gabriel - Er ist ein Kerl
TTITLE13=Tom Astor - Krawattentrucker Erwin
TTITLE14=Bruce Low - Jesse James
TTITLE15=Jonny Hill - Heut' Nacht da brauch' ich dich
EXTD=
EXTT0=
EXTT1=
EXTT2=
EXTT3=
EXTT4=
EXTT5=
EXTT6=
EXTT7=
EXTT8=
EXTT9=
EXTT10=
EXTT11=
EXTT12=
EXTT13=
EXTT14=
EXTT15=
PLAYORDER=
